<?xml version="1.0" standalone="no"?>
<!DOCTYPE svg PUBLIC "-//W3C//DTD SVG 20010904//EN"
 "http://www.w3.org/TR/2001/REC-SVG-20010904/DTD/svg10.dtd">
<svg version="1.0" xmlns="http://www.w3.org/2000/svg"
 width="481.000000pt" height="464.000000pt" viewBox="0 0 481.000000 464.000000"
 preserveAspectRatio="xMidYMid meet">

<g transform="translate(0.000000,464.000000) scale(0.100000,-0.100000)"
fill="#000000" stroke="none">
<path d="M2175 4555 c-585 -80 -1084 -359 -1477 -825 -192 -229 -366 -585
-441 -905 -57 -241 -74 -563 -42 -810 54 -417 239 -843 501 -1155 74 -89 234
-247 321 -318 195 -159 445 -296 695 -381 256 -87 463 -121 735 -121 265 0
466 33 725 120 822 274 1422 1013 1523 1875 104 891 -318 1753 -1085 2215
-262 158 -554 260 -878 304 -135 19 -444 20 -577 1z m655 -93 c232 -44 414
-103 600 -196 644 -321 1081 -917 1197 -1631 24 -152 24 -494 0 -655 -59 -385
-232 -773 -471 -1059 -87 -104 -285 -295 -376 -362 -292 -217 -635 -361 -990
-416 -161 -24 -503 -24 -655 0 -548 89 -1033 368 -1368 787 -276 346 -427 709
-478 1149 -17 148 -7 444 20 596 69 392 231 737 489 1046 328 391 804 659
1322 743 146 24 151 24 385 21 165 -3 246 -9 325 -23z"/>
<path d="M2215 4369 c-209 -25 -450 -96 -640 -188 -224 -108 -377 -215 -559
-391 -315 -306 -528 -708 -603 -1145 -22 -126 -25 -528 -5 -650 74 -455 287
-865 611 -1177 132 -128 224 -200 361 -283 351 -214 738 -316 1150 -302 364
13 690 107 991 287 156 93 250 164 387 296 317 301 533 718 609 1173 22 132
24 470 4 611 -70 496 -334 969 -724 1296 -284 239 -610 389 -996 460 -104 19
-468 27 -586 13z m570 -203 c391 -69 704 -231 998 -515 517 -500 697 -1244
470 -1946 -56 -176 -197 -430 -326 -592 l-52 -65 -3 506 -2 505 -290 195
c-159 108 -292 196 -296 196 -4 0 -150 -89 -325 -197 l-318 -198 -1 -817 0
-818 -180 0 -180 0 -2 982 -3 982 -285 193 c-157 106 -292 191 -300 189 -8 -2
-154 -90 -325 -195 l-310 -192 -5 -660 -5 -661 -51 64 c-120 150 -247 376
-308 546 -142 400 -142 876 0 1274 254 709 918 1206 1664 1247 142 7 316 -2
435 -23z m-1195 -2555 l0 -980 -81 47 c-87 51 -190 126 -293 212 l-65 55 0
686 -1 686 218 135 c119 75 218 136 220 137 1 1 2 -440 2 -978z m1583 -1052
c-25 -24 -364 -119 -424 -119 -5 0 -9 350 -9 778 l0 779 218 134 217 134 3
-849 c1 -468 -1 -853 -5 -857z"/>
<path d="M2358 3577 l-418 -259 0 -309 0 -308 59 -41 c33 -22 62 -40 65 -40 3
0 7 140 8 312 l3 312 280 173 280 173 5 -724 5 -724 295 185 c162 101 307 190
321 198 24 13 32 9 155 -70 l129 -84 3 472 2 472 -22 15 c-12 8 -184 125 -383
258 -198 134 -362 245 -365 246 -3 2 -193 -114 -422 -257z"/>
</g>
</svg>
